# xmcd
#
# Track frame offsets: 
#        150
#        7639
#        19343
#        29908
#        42825
#        57249
#        72037
#        83568
#        93450
#        106464
#        124316
#        132640
#        144393
#        155802
#        171015
#        183377
#
# Disc length: 2970 seconds
#
# Revision: 2
# Processed by: cddbd v1.5.2PL0 Copyright (c) Steve Scherf et al.
# Submitted via: ExactAudioCopy v0.95b4
#
DISCID=da0b9810
DTITLE=Frank Sinatra Ivy Anderson - It Don't Mean A Thing [CD 1)
DYEAR=1900
DGENRE=Jazz
TTITLE0=Paper Doll
TTITLE1=Swinging On A Star
TTITLE2=I Should Care
TTITLE3=What Makes The Sunset
TTITLE4=If I Loved You
TTITLE5=No Love, No Nothin'
TTITLE6=Oh, What A Beautifull Morning
TTITLE7=And When You Kissed Me
TTITLE8=My Heat Tells Me
TTITLE9=Lover, Come Back To Me
TTITLE10=Time After Time
TTITLE11=Speak Law
TTITLE12=If Loveliness Were Music
TTITLE13=I've Had This Feeling Before
TTITLE14=The Girl That I Marry
TTITLE15=Soliloquy
EXTD=
EXTT0=
EXTT1=
EXTT2=
EXTT3=
EXTT4=
EXTT5=
EXTT6=
EXTT7=
EXTT8=
EXTT9=
EXTT10=
EXTT11=
EXTT12=
EXTT13=
EXTT14=
EXTT15=
PLAYORDER=
